<?xml version="1.0" encoding="UTF-8"?>
<!DOCTYPE svg PUBLIC "-//W3C//DTD SVG 1.1//EN" "http://www.w3.org/Graphics/SVG/1.1/DTD/svg11.dtd">
<svg xmlns="http://www.w3.org/2000/svg" version="1.1" width="1920px" height="1080px" style="shape-rendering:geometricPrecision; text-rendering:geometricPrecision; image-rendering:optimizeQuality; fill-rule:evenodd; clip-rule:evenodd" xmlns:xlink="http://www.w3.org/1999/xlink">
<g><path style="opacity:1" fill="#fefefe" d="M -0.5,-0.5 C 639.5,-0.5 1279.5,-0.5 1919.5,-0.5C 1919.5,359.5 1919.5,719.5 1919.5,1079.5C 1279.5,1079.5 639.5,1079.5 -0.5,1079.5C -0.5,719.5 -0.5,359.5 -0.5,-0.5 Z"/></g>
<g><path style="opacity:1" fill="#04bf64" d="M 951.5,19.5 C 962.621,17.5982 972.288,20.4315 980.5,28C 1138.76,168.383 1296.93,308.883 1455,449.5C 1457.7,453.409 1459.04,457.742 1459,462.5C 1470.78,474.798 1477.78,489.464 1480,506.5C 1480.67,665.167 1480.67,823.833 1480,982.5C 1474.97,1013.86 1458.14,1036.36 1429.5,1050C 1409.02,1058.63 1388.02,1061.97 1366.5,1060C 1094.83,1059.33 823.167,1059.33 551.5,1060C 515.972,1063.89 485.138,1053.39 459,1028.5C 447.19,1015.42 440.19,1000.09 438,982.5C 437.333,823.5 437.333,664.5 438,505.5C 440.813,489.029 447.813,474.695 459,462.5C 459.473,454.389 462.973,447.889 469.5,443C 627.167,303.333 784.833,163.667 942.5,24C 945.592,22.4541 948.592,20.9541 951.5,19.5 Z"/></g>
<g><path style="opacity:1" fill="#fefefe" d="M 957.5,74.5 C 958.552,74.3505 959.552,74.5172 960.5,75C 1105.54,204.371 1250.87,333.371 1396.5,462C 1359.33,495.167 1322.17,528.333 1285,561.5C 1284.67,517.833 1284.33,474.167 1284,430.5C 1281.69,426.42 1278.19,423.92 1273.5,423C 1066.17,422.333 858.833,422.333 651.5,423C 647,424.833 643.833,428 642,432.5C 641.667,477.833 641.333,523.167 641,568.5C 600.869,533.371 561.036,497.871 521.5,462C 667.325,333.339 812.658,204.173 957.5,74.5 Z"/></g>
<g><path style="opacity:1" fill="#fefefe" d="M 672.5,449.5 C 866.167,449.5 1059.83,449.5 1253.5,449.5C 1253.67,500.501 1253.5,551.501 1253,602.5C 1154.99,689.18 1056.99,775.846 959,862.5C 863.381,778.551 768.048,694.218 673,609.5C 672.5,556.168 672.333,502.834 672.5,449.5 Z"/></g>
<g><path style="opacity:1" fill="#fefefe" d="M 481.5,980.5 C 481.333,823.5 481.5,666.5 482,509.5C 482.977,507.26 483.477,504.927 483.5,502.5C 483.447,499.939 484.447,497.939 486.5,496.5C 591.464,588.795 696.13,681.462 800.5,774.5C 708.377,856.119 616.377,937.952 524.5,1020C 501.102,1016.77 486.769,1003.6 481.5,980.5 Z"/></g>
<g><path style="opacity:1" fill="#fefefe" d="M 1430.5,496.5 C 1431.5,496.414 1432.33,496.748 1433,497.5C 1434.73,501.363 1436.07,505.363 1437,509.5C 1437.67,666.5 1437.67,823.5 1437,980.5C 1431.32,1003.52 1416.82,1016.68 1393.5,1020C 1301.62,937.952 1209.62,856.119 1117.5,774.5C 1221.88,681.782 1326.21,589.116 1430.5,496.5 Z"/></g>
<g><path style="opacity:1" fill="#c6f0dc" d="M 483.5,502.5 C 483.477,504.927 482.977,507.26 482,509.5C 481.5,666.5 481.333,823.5 481.5,980.5C 480.334,823.334 480.167,666.001 481,508.5C 481.566,506.277 482.4,504.277 483.5,502.5 Z"/></g>
<g><path style="opacity:1" fill="#fefefe" d="M 1322.5,1021.5 C 1080.33,1021.83 838.333,1021.5 596.5,1020.5C 676.517,949.151 756.85,878.151 837.5,807.5C 871.946,837.11 905.946,867.276 939.5,898C 952.487,907.998 965.487,907.998 978.5,898C 1012.31,867.598 1046.31,837.432 1080.5,807.5C 1161.51,878.513 1242.18,949.846 1322.5,1021.5 Z"/></g>
<g><path style="opacity:1" fill="#3bce87" d="M 596.5,1020.5 C 838.333,1021.5 1080.33,1021.83 1322.5,1021.5C 1080.33,1022.83 838,1022.83 595.5,1021.5C 595.624,1020.89 595.957,1020.56 596.5,1020.5 Z"/></g>
</svg>
