<svg version="1.1" id="Layer_1" xmlns="http://www.w3.org/2000/svg" xmlns:xlink="http://www.w3.org/1999/xlink" x="0px" y="0px"
	 width="100%" viewBox="0 0 1920 1080" enable-background="new 0 0 1920 1080" xml:space="preserve">
<path fill="#FFFFFF" opacity="1.000000" stroke="none" 
	d="
M1254.000000,1081.000000 
	C836.000061,1081.000000 418.500153,1081.000000 1.000168,1081.000000 
	C1.000112,721.000122 1.000112,361.000275 1.000056,1.000209 
	C2.166528,1.000000 3.333055,1.000000 4.499582,1.000000 
	C643.332825,1.000000 1282.166016,1.000000 1920.999512,1.000000 
	C1920.999634,360.999664 1920.999634,720.999329 1920.999756,1080.999512 
	C1698.833374,1081.000000 1476.666626,1081.000000 1254.000000,1081.000000 
M490.190979,625.305542 
	C493.158234,626.372498 496.072540,627.628845 499.101318,628.475830 
	C519.158691,634.084534 539.556396,622.760620 544.981995,603.085205 
	C550.349182,583.621582 539.070007,563.457642 519.738831,557.957764 
	C500.112305,552.373779 479.681305,563.595032 474.384583,583.361084 
	C472.698730,589.652222 472.477539,596.335815 471.578064,602.898987 
	C471.365601,602.721375 470.673645,602.323975 470.223480,601.740173 
	C457.774506,585.595825 451.844879,567.675293 455.509094,547.188782 
	C455.957397,544.682434 456.874420,541.761108 453.466248,541.030823 
	C449.927246,540.272461 449.832886,543.596802 449.163818,545.908508 
	C448.934937,546.699341 448.893219,547.546936 448.792633,548.371948 
	C445.913879,571.977478 452.952362,592.346619 468.818848,609.854187 
	C471.574799,612.895142 475.097076,615.632568 476.758057,619.209961 
	C485.988739,639.091125 501.594513,650.722656 522.462952,655.982727 
	C534.890686,659.115173 547.484131,659.090210 560.210754,658.958923 
	C561.168884,674.027466 561.159180,689.233521 563.276794,704.137329 
	C568.455750,740.586243 580.516113,774.868347 598.360291,807.100830 
	C614.341614,835.968140 634.433411,861.747925 657.749268,884.953796 
	C676.663208,903.778442 697.549927,920.280823 719.838196,935.010376 
	C721.722473,936.255615 723.239380,939.016418 723.676086,941.311157 
	C724.949036,948.000488 725.596252,954.809509 726.472534,961.573669 
	C729.292419,983.340271 732.053833,1005.114563 734.939514,1026.872437 
	C736.678589,1039.984985 738.606689,1053.072388 740.485474,1066.424316 
	C742.105835,1066.516724 743.575012,1066.673340 745.044189,1066.673706 
	C791.847778,1066.686157 838.651367,1066.685425 885.454956,1066.670898 
	C886.608398,1066.670532 887.761841,1066.488525 889.848572,1066.640747 
	C910.459045,1066.640747 931.069580,1066.640747 952.167358,1066.640747 
	C954.859436,1047.562866 957.503296,1028.826660 961.064453,1010.019592 
	C975.040588,1010.041443 989.016663,1010.063293 1003.020813,1010.916382 
	C1005.706421,1029.413086 1008.391968,1047.909790 1011.077209,1066.404053 
	C1032.446655,1066.404053 1053.347778,1066.404053 1075.118774,1066.652832 
	C1124.239990,1066.652832 1173.361206,1066.652832 1222.649658,1066.652832 
	C1223.081909,1064.384888 1223.512817,1062.611328 1223.748047,1060.812134 
	C1225.687134,1045.979370 1227.559326,1031.137817 1229.511108,1016.306763 
	C1232.616577,992.708130 1235.935181,969.135620 1238.781006,945.505920 
	C1239.488403,939.631958 1241.592285,935.835632 1246.688599,932.422119 
	C1295.895264,899.463928 1336.327271,858.166504 1365.023193,805.989624 
	C1366.876953,802.619141 1369.621216,802.527527 1372.488770,802.218445 
	C1398.635620,799.400635 1424.792236,796.673401 1450.942871,793.890198 
	C1458.512817,793.084473 1466.072632,792.183167 1473.810669,791.305969 
	C1473.810669,723.729370 1473.810669,656.608276 1473.810669,589.211731 
	C1472.382446,588.777283 1471.014526,588.241028 1469.596313,587.947571 
	C1443.764771,582.602295 1417.948120,577.179138 1392.063721,572.102356 
	C1388.890503,571.479980 1387.980713,569.888062 1387.165894,567.461670 
	C1378.540161,541.778564 1366.516479,517.784790 1351.662354,495.136292 
	C1336.062866,471.351288 1317.574463,450.040161 1296.936523,430.574585 
	C1277.378906,412.127899 1255.827026,396.254486 1232.925415,382.205841 
	C1230.584229,380.769714 1228.814697,379.531982 1228.865845,376.148956 
	C1229.114502,359.655579 1229.062866,343.156952 1229.032471,326.660339 
	C1229.010498,314.709076 1228.855713,302.758057 1228.908203,290.083771 
	C1229.672241,287.902222 1230.752319,285.769775 1231.101074,283.523743 
	C1231.383301,281.705902 1230.785522,279.751343 1230.578247,277.857422 
	C1228.855103,278.632996 1227.132080,279.408569 1224.460815,280.068542 
	C1215.031494,280.769257 1205.380615,280.422913 1196.213867,282.363983 
	C1166.878540,288.575775 1144.430420,304.928040 1129.267578,330.888977 
	C1127.414551,334.061646 1125.741821,334.360779 1122.535645,333.422699 
	C1071.351562,318.447876 1019.101624,312.068787 965.787598,313.655823 
	C915.697205,315.146912 866.910950,323.644348 819.574768,340.043671 
	C753.369751,362.980011 694.979248,398.389374 647.050964,449.974823 
	C606.674561,493.432159 578.564270,543.615112 566.637390,602.069275 
	C563.356323,618.149902 562.261292,634.676514 559.358032,651.333801 
	C549.110657,651.165588 538.698975,652.090942 528.653259,650.581177 
	C512.267334,648.118469 498.102448,640.815918 489.049133,625.822388 
	C489.182220,625.607178 489.315277,625.391968 490.190979,625.305542 
M1029.887573,248.405548 
	C1074.060059,229.427505 1104.006958,184.559158 1103.281128,135.507812 
	C1102.825195,104.694374 1092.715698,77.781311 1071.996094,55.155445 
	C1042.610352,23.066311 1005.635742,10.008820 962.976807,16.414759 
	C895.236328,26.587101 852.660156,88.961517 860.771606,151.564606 
	C865.142761,185.300339 880.588745,212.897171 907.517639,233.210266 
	C944.818604,261.347168 985.844299,265.509521 1029.887573,248.405548 
z"/>
<path fill="#00BF63" opacity="1.000000" stroke="none" 
	d="
M560.163147,650.998474 
	C562.261292,634.676514 563.356323,618.149902 566.637390,602.069275 
	C578.564270,543.615112 606.674561,493.432159 647.050964,449.974823 
	C694.979248,398.389374 753.369751,362.980011 819.574768,340.043671 
	C866.910950,323.644348 915.697205,315.146912 965.787598,313.655823 
	C1019.101624,312.068787 1071.351562,318.447876 1122.535645,333.422699 
	C1125.741821,334.360779 1127.414551,334.061646 1129.267578,330.888977 
	C1144.430420,304.928040 1166.878540,288.575775 1196.213867,282.363983 
	C1205.380615,280.422913 1215.031494,280.769257 1224.879761,280.504700 
	C1223.182495,286.371094 1221.081177,291.807190 1218.947632,297.230560 
	C1197.857422,350.842834 1176.756470,404.450867 1155.685303,458.070587 
	C1154.747314,460.457825 1152.947388,463.445099 1156.593750,464.856232 
	C1159.862305,466.121094 1160.741211,463.072083 1161.655396,460.744904 
	C1175.776245,424.798859 1189.848755,388.833740 1204.014282,352.905334 
	C1212.187256,332.176056 1220.506714,311.504517 1228.760132,290.806946 
	C1228.855713,302.758057 1229.010498,314.709076 1229.032471,326.660339 
	C1229.062866,343.156952 1229.114502,359.655579 1228.865845,376.148956 
	C1228.814697,379.531982 1230.584229,380.769714 1232.925415,382.205841 
	C1255.827026,396.254486 1277.378906,412.127899 1296.936523,430.574585 
	C1317.574463,450.040161 1336.062866,471.351288 1351.662354,495.136292 
	C1366.516479,517.784790 1378.540161,541.778564 1387.165894,567.461670 
	C1387.980713,569.888062 1388.890503,571.479980 1392.063721,572.102356 
	C1417.948120,577.179138 1443.764771,582.602295 1469.596313,587.947571 
	C1471.014526,588.241028 1472.382446,588.777283 1473.810669,589.211731 
	C1473.810669,656.608276 1473.810669,723.729370 1473.810669,791.305969 
	C1466.072632,792.183167 1458.512817,793.084473 1450.942871,793.890198 
	C1424.792236,796.673401 1398.635620,799.400635 1372.488770,802.218445 
	C1369.621216,802.527527 1366.876953,802.619141 1365.023193,805.989624 
	C1336.327271,858.166504 1295.895264,899.463928 1246.688599,932.422119 
	C1241.592285,935.835632 1239.488403,939.631958 1238.781006,945.505920 
	C1235.935181,969.135620 1232.616577,992.708130 1229.511108,1016.306763 
	C1227.559326,1031.137817 1225.687134,1045.979370 1223.748047,1060.812134 
	C1223.512817,1062.611328 1223.081909,1064.384888 1222.649658,1066.652832 
	C1173.361206,1066.652832 1124.239990,1066.652832 1074.622070,1066.128906 
	C1073.953491,1063.616455 1073.878662,1061.614014 1073.594482,1059.641846 
	C1070.348389,1037.109009 1067.058350,1014.582397 1063.804443,992.050659 
	C1061.096802,973.301270 1058.509155,954.533508 1055.584351,935.818237 
	C1055.319092,934.120605 1052.978638,932.747375 1051.601807,931.223450 
	C1050.812012,933.000671 1049.152954,934.891785 1049.368530,936.537292 
	C1051.289307,951.198975 1053.570312,965.813171 1055.684326,980.450073 
	C1056.816406,988.289490 1057.828735,996.146118 1059.032593,1005.006775 
	C1039.979492,1006.733398 1021.486145,1008.409302 1002.992798,1010.085205 
	C989.016663,1010.063293 975.040588,1010.041443 960.160950,1010.010681 
	C940.976929,1008.333496 922.696350,1006.665161 903.994934,1004.958496 
	C907.246216,982.408875 910.357788,961.062988 913.361755,939.702026 
	C913.744873,936.977844 915.682434,932.860107 911.377930,932.199158 
	C906.647888,931.472900 907.451782,936.229919 907.036011,939.046082 
	C903.055542,966.009094 899.175781,992.987183 895.333252,1019.970276 
	C893.130981,1035.434937 891.050598,1050.916992 888.915283,1066.391113 
	C887.761841,1066.488525 886.608398,1066.670532 885.454956,1066.670898 
	C838.651367,1066.685425 791.847778,1066.686157 745.044189,1066.673706 
	C743.575012,1066.673340 742.105835,1066.516724 740.485474,1066.424316 
	C738.606689,1053.072388 736.678589,1039.984985 734.939514,1026.872437 
	C732.053833,1005.114563 729.292419,983.340271 726.472534,961.573669 
	C725.596252,954.809509 724.949036,948.000488 723.676086,941.311157 
	C723.239380,939.016418 721.722473,936.255615 719.838196,935.010376 
	C697.549927,920.280823 676.663208,903.778442 657.749268,884.953796 
	C634.433411,861.747925 614.341614,835.968140 598.360291,807.100830 
	C580.516113,774.868347 568.455750,740.586243 563.276794,704.137329 
	C561.159180,689.233521 561.168884,674.027466 560.549194,658.384399 
	C563.150208,657.468872 565.559387,657.491272 567.623108,656.658081 
	C568.975891,656.111877 569.828979,654.328125 570.905823,653.098755 
	C569.425049,652.159851 568.032837,650.678650 566.441223,650.418701 
	C564.433594,650.090881 562.263306,650.759705 560.163147,650.998474 
M1236.418091,574.212341 
	C1237.596436,574.821289 1238.734009,575.532043 1239.959595,576.023132 
	C1249.841309,579.983337 1260.566772,577.182739 1267.412842,568.898010 
	C1273.804688,561.163147 1274.463501,550.082703 1269.048950,541.385681 
	C1263.681519,532.764343 1253.040405,528.356079 1243.072876,531.029114 
	C1233.776367,533.522156 1227.705078,539.595581 1225.716431,549.070862 
	C1223.542114,559.431396 1227.406616,567.627991 1236.418091,574.212341 
M1039.500000,345.134796 
	C992.553772,345.134796 945.607483,345.096619 898.661865,345.270538 
	C896.730896,345.277679 893.394531,347.029114 893.156555,348.394043 
	C892.546326,351.893433 895.738831,351.829681 898.308472,351.829468 
	C953.911438,351.824890 1009.514404,351.855072 1065.116943,351.693604 
	C1066.925781,351.688354 1068.728760,349.737793 1070.534546,348.694092 
	C1068.680298,347.507874 1066.869995,345.386871 1064.964355,345.297607 
	C1056.824829,344.916412 1048.657349,345.135132 1039.500000,345.134796 
M1205.419312,820.971130 
	C1211.657837,843.243652 1230.384155,856.524170 1253.244019,854.887878 
	C1273.747559,853.420349 1290.908081,836.240967 1293.567505,814.376038 
	C1293.893799,811.693420 1294.750977,807.921387 1290.867432,807.409607 
	C1286.655518,806.854614 1287.200317,810.757202 1286.992676,813.441895 
	C1285.775635,829.168884 1274.478760,842.912292 1259.275513,847.075562 
	C1243.423218,851.416565 1227.021118,845.639954 1217.768799,832.523010 
	C1213.327759,826.226929 1211.151001,819.253723 1210.565063,811.587280 
	C1210.447388,810.046997 1208.263306,808.664734 1207.031982,807.209595 
	C1206.059570,808.730835 1204.384399,810.201233 1204.270020,811.784546 
	C1204.070312,814.544128 1204.832520,817.373291 1205.419312,820.971130 
M1433.067749,686.500000 
	C1433.067627,690.490784 1433.066895,694.481628 1433.067749,698.472412 
	C1433.069580,706.952820 1432.925049,715.438354 1433.216675,723.908813 
	C1433.266602,725.357361 1435.182251,726.741760 1436.236084,728.155884 
	C1437.403687,726.822083 1438.748779,725.597168 1439.662842,724.107788 
	C1440.109741,723.379700 1439.761230,722.159302 1439.761353,721.161743 
	C1439.762573,699.877502 1439.781860,678.593262 1439.738159,657.309143 
	C1439.732666,654.633362 1440.618774,650.941406 1436.263794,650.992981 
	C1432.229492,651.040771 1433.118042,654.569641 1433.098267,657.065857 
	C1433.022827,666.543396 1433.067871,676.021851 1433.067749,686.500000 
z"/>
<path fill="#01BF63" opacity="1.000000" stroke="none" 
	d="
M1029.551270,248.585175 
	C985.844299,265.509521 944.818604,261.347168 907.517639,233.210266 
	C880.588745,212.897171 865.142761,185.300339 860.771606,151.564606 
	C852.660156,88.961517 895.236328,26.587101 962.976807,16.414759 
	C1005.635742,10.008820 1042.610352,23.066311 1071.996094,55.155445 
	C1092.715698,77.781311 1102.825195,104.694374 1103.281128,135.507812 
	C1104.006958,184.559158 1074.060059,229.427505 1029.551270,248.585175 
M1024.536499,213.043625 
	C1055.867310,195.245041 1074.091064,161.167709 1068.304565,124.126793 
	C1062.627686,87.787117 1041.288086,62.974957 1005.981812,52.663437 
	C970.409241,42.274109 939.454224,52.355141 914.777954,79.959679 
	C884.471741,113.862259 887.668701,169.884109 921.185608,200.256180 
	C950.639282,226.946320 988.585327,231.806595 1024.536499,213.043625 
z"/>
<path fill="#010302" opacity="1.000000" stroke="none" 
	d="
M889.381958,1066.515869 
	C891.050598,1050.916992 893.130981,1035.434937 895.333252,1019.970276 
	C899.175781,992.987183 903.055542,966.009094 907.036011,939.046082 
	C907.451782,936.229919 906.647888,931.472900 911.377930,932.199158 
	C915.682434,932.860107 913.744873,936.977844 913.361755,939.702026 
	C910.357788,961.062988 907.246216,982.408875 903.994934,1004.958496 
	C922.696350,1006.665161 940.976929,1008.333496 959.702271,1010.046143 
	C957.503296,1028.826660 954.859436,1047.562866 952.167358,1066.640747 
	C931.069580,1066.640747 910.459045,1066.640747 889.381958,1066.515869 
z"/>
<path fill="#000302" opacity="1.000000" stroke="none" 
	d="
M1003.006836,1010.500793 
	C1021.486145,1008.409302 1039.979492,1006.733398 1059.032593,1005.006775 
	C1057.828735,996.146118 1056.816406,988.289490 1055.684326,980.450073 
	C1053.570312,965.813171 1051.289307,951.198975 1049.368530,936.537292 
	C1049.152954,934.891785 1050.812012,933.000671 1051.601807,931.223450 
	C1052.978638,932.747375 1055.319092,934.120605 1055.584351,935.818237 
	C1058.509155,954.533508 1061.096802,973.301270 1063.804443,992.050659 
	C1067.058350,1014.582397 1070.348389,1037.109009 1073.594482,1059.641846 
	C1073.878662,1061.614014 1073.953491,1063.616455 1074.187134,1066.004395 
	C1053.347778,1066.404053 1032.446655,1066.404053 1011.077209,1066.404053 
	C1008.391968,1047.909790 1005.706421,1029.413086 1003.006836,1010.500793 
z"/>
<path fill="#0D0D0D" opacity="1.000000" stroke="none" 
	d="
M559.760620,651.166138 
	C562.263306,650.759705 564.433594,650.090881 566.441223,650.418701 
	C568.032837,650.678650 569.425049,652.159851 570.905823,653.098755 
	C569.828979,654.328125 568.975891,656.111877 567.623108,656.658081 
	C565.559387,657.491272 563.150208,657.468872 560.512207,657.920898 
	C547.484131,659.090210 534.890686,659.115173 522.462952,655.982727 
	C501.594513,650.722656 485.988739,639.091125 476.758057,619.209961 
	C475.097076,615.632568 471.574799,612.895142 468.818848,609.854187 
	C452.952362,592.346619 445.913879,571.977478 448.792633,548.371948 
	C448.893219,547.546936 448.934937,546.699341 449.163818,545.908508 
	C449.832886,543.596802 449.927246,540.272461 453.466248,541.030823 
	C456.874420,541.761108 455.957397,544.682434 455.509094,547.188782 
	C451.844879,567.675293 457.774506,585.595825 470.223480,601.740173 
	C470.673645,602.323975 471.365601,602.721375 471.578064,602.898987 
	C472.477539,596.335815 472.698730,589.652222 474.384583,583.361084 
	C479.681305,563.595032 500.112305,552.373779 519.738831,557.957764 
	C539.070007,563.457642 550.349182,583.621582 544.981995,603.085205 
	C539.556396,622.760620 519.158691,634.084534 499.101318,628.475830 
	C496.072540,627.628845 493.158234,626.372498 489.536438,625.069580 
	C488.779266,625.360535 488.676636,625.887451 488.574036,626.414429 
	C498.102448,640.815918 512.267334,648.118469 528.653259,650.581177 
	C538.698975,652.090942 549.110657,651.165588 559.760620,651.166138 
M484.957458,575.591431 
	C482.947601,581.152832 479.488190,586.637146 479.187836,592.289368 
	C478.096344,612.828735 479.432190,613.599976 496.338867,620.870483 
	C496.947784,621.132385 497.558563,621.398804 498.188080,621.602478 
	C509.802521,625.361023 520.601074,624.005310 529.842346,615.717102 
	C538.271118,608.157593 541.597168,598.466064 539.280029,587.339233 
	C536.758545,575.231140 529.315735,567.155884 517.306580,564.047241 
	C504.446899,560.718506 493.791473,564.847168 484.957458,575.591431 
z"/>
<path fill="#010B06" opacity="1.000000" stroke="none" 
	d="
M1228.834229,290.445374 
	C1220.506714,311.504517 1212.187256,332.176056 1204.014282,352.905334 
	C1189.848755,388.833740 1175.776245,424.798859 1161.655396,460.744904 
	C1160.741211,463.072083 1159.862305,466.121094 1156.593750,464.856232 
	C1152.947388,463.445099 1154.747314,460.457825 1155.685303,458.070587 
	C1176.756470,404.450867 1197.857422,350.842834 1218.947632,297.230560 
	C1221.081177,291.807190 1223.182495,286.371094 1225.353760,280.562500 
	C1227.132080,279.408569 1228.855103,278.632996 1230.578247,277.857422 
	C1230.785522,279.751343 1231.383301,281.705902 1231.101074,283.523743 
	C1230.752319,285.769775 1229.672241,287.902222 1228.834229,290.445374 
z"/>
<path fill="#000302" opacity="1.000000" stroke="none" 
	d="
M1236.097656,574.032898 
	C1227.406616,567.627991 1223.542114,559.431396 1225.716431,549.070862 
	C1227.705078,539.595581 1233.776367,533.522156 1243.072876,531.029114 
	C1253.040405,528.356079 1263.681519,532.764343 1269.048950,541.385681 
	C1274.463501,550.082703 1273.804688,561.163147 1267.412842,568.898010 
	C1260.566772,577.182739 1249.841309,579.983337 1239.959595,576.023132 
	C1238.734009,575.532043 1237.596436,574.821289 1236.097656,574.032898 
z"/>
<path fill="#00150B" opacity="1.000000" stroke="none" 
	d="
M1040.000000,345.134888 
	C1048.657349,345.135132 1056.824829,344.916412 1064.964355,345.297607 
	C1066.869995,345.386871 1068.680298,347.507874 1070.534546,348.694092 
	C1068.728760,349.737793 1066.925781,351.688354 1065.116943,351.693604 
	C1009.514404,351.855072 953.911438,351.824890 898.308472,351.829468 
	C895.738831,351.829681 892.546326,351.893433 893.156555,348.394043 
	C893.394531,347.029114 896.730896,345.277679 898.661865,345.270538 
	C945.607483,345.096619 992.553772,345.134796 1040.000000,345.134888 
z"/>
<path fill="#000B06" opacity="1.000000" stroke="none" 
	d="
M1205.305420,820.572205 
	C1204.832520,817.373291 1204.070312,814.544128 1204.270020,811.784546 
	C1204.384399,810.201233 1206.059570,808.730835 1207.031982,807.209595 
	C1208.263306,808.664734 1210.447388,810.046997 1210.565063,811.587280 
	C1211.151001,819.253723 1213.327759,826.226929 1217.768799,832.523010 
	C1227.021118,845.639954 1243.423218,851.416565 1259.275513,847.075562 
	C1274.478760,842.912292 1285.775635,829.168884 1286.992676,813.441895 
	C1287.200317,810.757202 1286.655518,806.854614 1290.867432,807.409607 
	C1294.750977,807.921387 1293.893799,811.693420 1293.567505,814.376038 
	C1290.908081,836.240967 1273.747559,853.420349 1253.244019,854.887878 
	C1230.384155,856.524170 1211.657837,843.243652 1205.305420,820.572205 
z"/>
<path fill="#00160B" opacity="1.000000" stroke="none" 
	d="
M1433.067871,686.000000 
	C1433.067871,676.021851 1433.022827,666.543396 1433.098267,657.065857 
	C1433.118042,654.569641 1432.229492,651.040771 1436.263794,650.992981 
	C1440.618774,650.941406 1439.732666,654.633362 1439.738159,657.309143 
	C1439.781860,678.593262 1439.762573,699.877502 1439.761353,721.161743 
	C1439.761230,722.159302 1440.109741,723.379700 1439.662842,724.107788 
	C1438.748779,725.597168 1437.403687,726.822083 1436.236084,728.155884 
	C1435.182251,726.741760 1433.266602,725.357361 1433.216675,723.908813 
	C1432.925049,715.438354 1433.069580,706.952820 1433.067749,698.472412 
	C1433.066895,694.481628 1433.067627,690.490784 1433.067871,686.000000 
z"/>
<path fill="#000A05" opacity="1.000000" stroke="none" 
	d="
M1024.217773,213.227890 
	C988.585327,231.806595 950.639282,226.946320 921.185608,200.256180 
	C887.668701,169.884109 884.471741,113.862259 914.777954,79.959679 
	C939.454224,52.355141 970.409241,42.274109 1005.981812,52.663437 
	C1041.288086,62.974957 1062.627686,87.787117 1068.304565,124.126793 
	C1074.091064,161.167709 1055.867310,195.245041 1024.217773,213.227890 
M1041.664673,191.165710 
	C1058.046997,172.692062 1064.920044,151.235245 1062.173584,126.642075 
	C1057.657471,86.199974 1019.985474,49.098820 969.872681,56.318111 
	C923.671448,62.973881 893.532288,105.167274 901.848877,150.911087 
	C907.735718,183.290649 927.303284,205.103912 958.630554,214.395004 
	C990.202026,223.758545 1018.106506,215.416138 1041.664673,191.165710 
z"/>
<path fill="#FCFCFC" opacity="1.000000" stroke="none" 
	d="
M485.165527,575.292969 
	C493.791473,564.847168 504.446899,560.718506 517.306580,564.047241 
	C529.315735,567.155884 536.758545,575.231140 539.280029,587.339233 
	C541.597168,598.466064 538.271118,608.157593 529.842346,615.717102 
	C520.601074,624.005310 509.802521,625.361023 498.188080,621.602478 
	C497.558563,621.398804 496.947784,621.132385 496.338867,620.870483 
	C479.432190,613.599976 478.096344,612.828735 479.187836,592.289368 
	C479.488190,586.637146 482.947601,581.152832 485.165527,575.292969 
z"/>
<path fill="#FFFFFF" opacity="1.000000" stroke="none" 
	d="
M488.811584,626.118408 
	C488.676636,625.887451 488.779266,625.360535 489.165100,625.005127 
	C489.315277,625.391968 489.182220,625.607178 488.811584,626.118408 
z"/>
<path fill="#00BE62" opacity="1.000000" stroke="none" 
	d="
M1041.421631,191.424103 
	C1018.106506,215.416138 990.202026,223.758545 958.630554,214.395004 
	C927.303284,205.103912 907.735718,183.290649 901.848877,150.911087 
	C893.532288,105.167274 923.671448,62.973881 969.872681,56.318111 
	C1019.985474,49.098820 1057.657471,86.199974 1062.173584,126.642075 
	C1064.920044,151.235245 1058.046997,172.692062 1041.421631,191.424103 
M984.853149,159.478363 
	C984.853149,152.841431 984.853149,146.204483 984.853149,139.729370 
	C997.587341,135.329147 1003.762634,128.170258 1004.046570,117.845284 
	C1004.362732,106.351570 998.978882,99.581055 985.087280,94.113205 
	C985.017395,93.528473 985.101013,92.801956 984.833313,92.244034 
	C983.868103,90.232552 982.991638,86.769859 981.705566,86.593185 
	C978.267639,86.120888 978.711914,89.420242 978.185425,91.855171 
	C977.902466,93.163460 976.341675,94.711647 975.010986,95.192421 
	C967.031433,98.075562 961.773743,103.404839 959.735229,111.641235 
	C959.024780,114.511971 957.151550,118.681839 961.496155,119.670845 
	C965.911255,120.675896 965.231628,116.085838 965.816406,113.417458 
	C967.249329,106.878136 971.945007,102.356323 977.830444,102.132835 
	C977.972046,102.587685 978.242981,103.056511 978.245850,103.526978 
	C978.295715,111.689003 978.169250,119.855362 978.403320,128.011520 
	C978.505127,131.558212 977.930725,133.507507 973.944397,134.791733 
	C964.642944,137.788223 958.984985,146.267685 958.963623,155.670197 
	C958.942871,164.797791 964.654541,173.601639 973.196594,176.670349 
	C976.674744,177.919891 979.112061,178.974075 978.570129,183.378845 
	C978.444214,184.402008 980.650146,185.712067 981.783081,186.890106 
	C982.802002,185.597687 984.206909,184.442657 984.729736,182.973679 
	C985.237427,181.547226 984.839905,179.798615 984.839905,178.394485 
	C995.500671,175.432922 1002.297974,169.559631 1003.881226,158.875793 
	C1004.222961,156.569260 1004.993225,153.360611 1001.263489,152.980591 
	C997.896484,152.637497 998.128967,155.494949 997.729370,157.823593 
	C996.484436,165.077744 991.722290,169.982620 984.852966,170.878036 
	C984.852966,167.369568 984.852966,163.919327 984.853149,159.478363 
z"/>
<path fill="#000905" opacity="1.000000" stroke="none" 
	d="
M984.853027,159.973724 
	C984.852966,163.919327 984.852966,167.369568 984.852966,170.878036 
	C991.722290,169.982620 996.484436,165.077744 997.729370,157.823593 
	C998.128967,155.494949 997.896484,152.637497 1001.263489,152.980591 
	C1004.993225,153.360611 1004.222961,156.569260 1003.881226,158.875793 
	C1002.297974,169.559631 995.500671,175.432922 984.839905,178.394485 
	C984.839905,179.798615 985.237427,181.547226 984.729736,182.973679 
	C984.206909,184.442657 982.802002,185.597687 981.783081,186.890106 
	C980.650146,185.712067 978.444214,184.402008 978.570129,183.378845 
	C979.112061,178.974075 976.674744,177.919891 973.196594,176.670349 
	C964.654541,173.601639 958.942871,164.797791 958.963623,155.670197 
	C958.984985,146.267685 964.642944,137.788223 973.944397,134.791733 
	C977.930725,133.507507 978.505127,131.558212 978.403320,128.011520 
	C978.169250,119.855362 978.295715,111.689003 978.245850,103.526978 
	C978.242981,103.056511 977.972046,102.587685 977.830444,102.132835 
	C971.945007,102.356323 967.249329,106.878136 965.816406,113.417458 
	C965.231628,116.085838 965.911255,120.675896 961.496155,119.670845 
	C957.151550,118.681839 959.024780,114.511971 959.735229,111.641235 
	C961.773743,103.404839 967.031433,98.075562 975.010986,95.192421 
	C976.341675,94.711647 977.902466,93.163460 978.185425,91.855171 
	C978.711914,89.420242 978.267639,86.120888 981.705566,86.593185 
	C982.991638,86.769859 983.868103,90.232552 984.833313,92.244034 
	C985.101013,92.801956 985.017395,93.528473 985.087280,94.113205 
	C998.978882,99.581055 1004.362732,106.351570 1004.046570,117.845284 
	C1003.762634,128.170258 997.587341,135.329147 984.853149,139.729370 
	C984.853149,146.204483 984.853149,152.841431 984.853027,159.973724 
M977.725708,140.229996 
	C969.587585,142.636169 964.505371,149.582901 965.322144,157.184265 
	C966.128601,164.689560 971.239746,170.203384 978.407288,170.877350 
	C978.407288,160.773865 978.407288,150.703217 977.725708,140.229996 
M984.847351,105.714569 
	C984.847351,114.462074 984.847351,123.209579 984.847351,132.023575 
	C992.161194,131.080444 997.318787,125.236137 997.835022,117.935585 
	C998.297913,111.387413 993.385803,103.623383 987.911621,102.027542 
	C985.202820,101.237854 984.689392,102.544167 984.847351,105.714569 
z"/>
<path fill="#00B35D" opacity="1.000000" stroke="none" 
	d="
M978.066528,140.431274 
	C978.407288,150.703217 978.407288,160.773865 978.407288,170.877350 
	C971.239746,170.203384 966.128601,164.689560 965.322144,157.184265 
	C964.505371,149.582901 969.587585,142.636169 978.066528,140.431274 
z"/>
<path fill="#00BB61" opacity="1.000000" stroke="none" 
	d="
M984.848450,105.244278 
	C984.689392,102.544167 985.202820,101.237854 987.911621,102.027542 
	C993.385803,103.623383 998.297913,111.387413 997.835022,117.935585 
	C997.318787,125.236137 992.161194,131.080444 984.847351,132.023575 
	C984.847351,123.209579 984.847351,114.462074 984.848450,105.244278 
z"/>
</svg>