<svg version="1.1" id="Layer_1" xmlns="http://www.w3.org/2000/svg" xmlns:xlink="http://www.w3.org/1999/xlink" x="0px" y="0px"
	 width="100%" viewBox="0 0 1920 1080" enable-background="new 0 0 1920 1080" xml:space="preserve">
<path fill="#FFFFFF" opacity="1.000000" stroke="none" 
	d="
M1291.000000,1081.000000 
	C860.666748,1081.000000 430.833496,1081.000000 1.000173,1081.000000 
	C1.000115,721.000122 1.000115,361.000275 1.000058,1.000212 
	C2.166525,1.000000 3.333050,1.000000 4.499576,1.000000 
	C643.332825,1.000000 1282.166016,1.000000 1920.999512,1.000000 
	C1920.999634,360.999664 1920.999634,720.999329 1920.999756,1080.999512 
	C1711.166626,1081.000000 1501.333374,1081.000000 1291.000000,1081.000000 
M1387.930786,670.500000 
	C1387.930786,731.775757 1387.930786,793.051514 1387.930786,854.819031 
	C1385.601807,854.819031 1383.811768,854.818970 1382.021729,854.818970 
	C1332.688477,854.818909 1283.355347,854.807861 1234.022095,854.825623 
	C1219.282959,854.830872 1213.731323,860.371582 1213.729492,874.983521 
	C1213.723389,924.316711 1213.727173,973.649963 1213.727173,1022.983154 
	C1213.727173,1024.925415 1213.727173,1026.867554 1213.727173,1028.854980 
	C1021.642456,1028.854980 830.216919,1028.854980 638.285522,1028.854980 
	C638.285522,941.827515 638.285522,855.086060 638.285522,768.126465 
	C626.555725,768.126465 615.333252,768.126465 603.727295,768.126465 
	C603.727295,769.731689 603.727295,771.031860 603.727295,772.332031 
	C603.727417,863.165100 603.717407,953.998230 603.738831,1044.831299 
	C603.741943,1058.119385 609.863586,1063.977295 623.621094,1063.977783 
	C825.120544,1063.984497 1026.619995,1063.963379 1228.119507,1064.063477 
	C1234.956543,1064.066895 1240.241821,1061.836060 1245.001465,1057.067261 
	C1301.751221,1000.208984 1358.574585,943.424072 1415.378296,886.619629 
	C1420.171021,881.826843 1422.583862,876.184570 1422.582520,869.262085 
	C1422.527954,592.096130 1422.537109,314.930206 1422.532837,37.764259 
	C1422.532593,23.928802 1416.605835,18.001694 1402.779053,18.001480 
	C1143.113037,17.997490 883.447083,17.997328 623.781128,18.001797 
	C609.513367,18.002041 603.732178,23.755392 603.730835,37.954224 
	C603.723389,116.620689 603.725830,195.287155 603.737244,273.953613 
	C603.737488,275.702209 603.883484,277.450806 603.961731,279.204102 
	C615.619934,279.204102 626.722107,279.204102 638.391541,279.204102 
	C638.391541,203.653610 638.391541,128.408371 638.391541,53.194244 
	C888.525330,53.194244 1138.086792,53.194244 1387.930786,53.194244 
	C1387.930786,258.878784 1387.930786,464.189392 1387.930786,670.500000 
M1318.056885,225.500000 
	C1318.056763,198.175674 1317.726685,170.845657 1318.196899,143.529419 
	C1318.429565,130.016647 1312.360474,122.008965 1296.954834,122.414299 
	C1296.122437,122.436203 1295.288818,122.416809 1294.455811,122.416809 
	C1176.327881,122.416756 1058.199829,122.416695 940.071899,122.417198 
	C938.739014,122.417206 937.402405,122.360481 936.073914,122.438972 
	C922.816162,123.222260 917.290833,129.085861 917.289856,142.430588 
	C917.282776,239.565430 917.282288,336.700287 917.290588,433.835114 
	C917.291809,447.898987 923.293396,453.824341 937.463135,453.824524 
	C1057.590454,453.826019 1177.717773,453.826019 1297.845093,453.824341 
	C1312.192627,453.824127 1318.054199,447.914459 1318.054932,433.432190 
	C1318.058960,364.454803 1318.056885,295.477386 1318.056885,225.500000 
M800.499878,680.515198 
	C833.568665,680.515198 866.637451,680.515198 899.648071,680.515198 
	C899.648071,668.418701 899.648071,657.155029 899.648071,645.343628 
	C882.309021,645.343628 865.240173,645.343628 847.733704,645.343628 
	C847.733704,642.998840 847.733704,641.201721 847.733704,639.404602 
	C847.733704,566.906799 847.733643,494.409027 847.733643,421.911255 
	C847.733643,387.078979 847.753967,352.246704 847.723877,317.414459 
	C847.711426,302.961243 841.735107,296.993195 827.435364,296.992035 
	C794.603027,296.989349 761.770691,296.990570 728.938354,296.991455 
	C713.848694,296.991882 708.052429,302.737274 708.047058,317.757416 
	C708.035767,349.589783 708.043640,381.422150 708.043640,413.254517 
	C708.043640,415.031036 708.043640,416.807556 708.043640,418.991211 
	C705.713196,418.991211 703.912842,418.991241 702.112427,418.991241 
	C675.946594,418.991241 649.780701,418.988037 623.614868,418.992462 
	C609.457275,418.994873 603.734558,424.767700 603.727051,439.076324 
	C603.716248,459.575714 603.724365,480.075073 603.724365,500.574463 
	C603.724365,502.331512 603.724365,504.088562 603.724365,506.139709 
	C601.165161,506.139709 599.343262,506.139709 597.521301,506.139709 
	C571.355408,506.139709 545.189575,506.139221 519.023682,506.139832 
	C504.958740,506.140167 499.126587,512.038086 499.125946,526.265381 
	C499.124664,554.431213 499.125488,582.596985 499.125580,610.762817 
	C499.125641,628.095642 499.069550,645.428650 499.147247,662.761108 
	C499.193909,673.165649 504.808319,679.259216 515.025879,680.229126 
	C517.176392,680.433228 519.346985,680.503784 521.508362,680.504089 
	C614.172180,680.517029 706.836060,680.515015 800.499878,680.515198 
M989.500000,715.152832 
	C1093.069702,715.152832 1196.639404,715.152832 1300.459229,715.152832 
	C1300.459229,703.409729 1300.459229,692.184692 1300.459229,680.687317 
	C1178.506836,680.687317 1056.834351,680.687317 934.910950,680.687317 
	C934.910950,692.222046 934.910950,703.482422 934.910950,715.152893 
	C952.899292,715.152893 970.699646,715.152893 989.500000,715.152832 
M1020.500000,506.139832 
	C992.057007,506.139832 963.614075,506.139832 934.949585,506.139832 
	C934.949585,517.952759 934.949585,529.210815 934.949585,540.733398 
	C1056.825195,540.733398 1178.532959,540.733398 1300.324463,540.733398 
	C1300.324463,529.116211 1300.324463,517.747620 1300.324463,506.139832 
	C1207.110352,506.139832 1114.305176,506.139832 1020.500000,506.139832 
M1247.500000,593.139771 
	C1143.434448,593.139771 1039.368896,593.139771 935.014282,593.139771 
	C935.014282,604.971313 935.014282,616.344421 935.014282,627.837402 
	C1056.962646,627.837402 1178.622437,627.837402 1300.337280,627.837402 
	C1300.337280,616.145325 1300.337280,604.768066 1300.337280,593.139832 
	C1282.794800,593.139832 1265.647339,593.139832 1247.500000,593.139771 
M704.505615,209.815262 
	C700.059937,209.815262 695.614319,209.815262 691.078979,209.815262 
	C691.078979,221.727341 691.078979,233.089722 691.078979,244.440994 
	C743.419556,244.440994 795.403381,244.440994 847.464355,244.440994 
	C847.464355,232.807190 847.464355,221.558731 847.464355,209.815216 
	C799.964478,209.815216 752.733826,209.815216 704.505615,209.815262 
M1114.500000,854.814392 
	C1089.589233,854.814392 1064.678589,854.814392 1039.671631,854.814392 
	C1039.671631,866.785400 1039.671631,878.158264 1039.671631,889.631348 
	C1080.296631,889.631348 1120.535278,889.631348 1161.081543,889.631348 
	C1161.081543,878.035156 1161.081543,866.632324 1161.081543,854.814392 
	C1145.750610,854.814392 1130.625244,854.814392 1114.500000,854.814392 
M1139.500000,941.989746 
	C1106.240845,941.989746 1072.981812,941.989746 1039.574951,941.989746 
	C1039.574951,953.816833 1039.574951,965.059143 1039.574951,976.498657 
	C1080.221680,976.498657 1120.578491,976.498657 1161.151367,976.498657 
	C1161.151367,964.903687 1161.151367,953.636169 1161.151367,941.989746 
	C1154.112915,941.989746 1147.306396,941.989746 1139.500000,941.989746 
M812.735718,878.470032 
	C812.735718,870.700989 812.735718,862.931946 812.735718,855.149048 
	C771.747681,855.149048 731.398804,855.149048 691.147217,855.149048 
	C691.147217,866.846558 691.147217,878.204773 691.147217,889.557495 
	C731.773499,889.557495 771.974426,889.557495 812.735596,889.557495 
	C812.735596,886.025635 812.735596,882.741455 812.735718,878.470032 
M964.500000,889.824341 
	C971.924561,889.824341 979.349182,889.824341 986.811890,889.824341 
	C986.811890,877.844849 986.811890,866.590088 986.811890,855.078003 
	C946.226379,855.078003 905.885193,855.078003 865.387268,855.078003 
	C865.387268,866.705750 865.387268,878.068054 865.387268,889.824280 
	C898.320435,889.824280 930.910217,889.824280 964.500000,889.824341 
M788.500000,976.824890 
	C796.431946,976.824890 804.363831,976.824890 812.476196,976.824890 
	C812.476196,964.934387 812.476196,953.694885 812.476196,942.266235 
	C771.841553,942.266235 731.467163,942.266235 690.970947,942.266235 
	C690.970947,953.793274 690.970947,965.042664 690.970947,976.824829 
	C723.310913,976.824829 755.405457,976.824829 788.500000,976.824890 
M920.500000,941.990356 
	C902.090637,941.990356 883.681274,941.990356 865.391357,941.990356 
	C865.391357,953.968567 865.391357,965.206238 865.391357,976.418762 
	C906.095886,976.418762 946.450073,976.418762 986.723511,976.418762 
	C986.723511,964.768616 986.723511,953.527649 986.723511,941.990356 
	C964.761353,941.990356 943.130676,941.990356 920.500000,941.990356 
M752.500000,767.819519 
	C732.064880,767.819519 711.629700,767.819519 691.007141,767.819519 
	C691.007141,779.586060 691.007141,790.815308 691.007141,802.129395 
	C731.662903,802.129395 772.038269,802.129395 812.326965,802.129395 
	C812.326965,790.527832 812.326965,779.312012 812.326965,767.819519 
	C792.450134,767.819519 772.975037,767.819519 752.500000,767.819519 
M1063.500000,767.818970 
	C1055.571899,767.818970 1047.643799,767.818970 1039.675049,767.818970 
	C1039.675049,779.681702 1039.675049,790.885437 1039.675049,802.255005 
	C1080.287598,802.255005 1120.516968,802.255005 1161.023682,802.255005 
	C1161.023682,790.776672 1161.023682,779.555664 1161.023682,767.818909 
	C1128.678955,767.818909 1096.589478,767.818909 1063.500000,767.818970 
M865.047485,784.500732 
	C865.047485,790.286377 865.047485,796.072021 865.047485,802.107544 
	C905.911072,802.107544 946.251770,802.107544 986.719666,802.107544 
	C986.719666,790.573547 986.719666,779.359924 986.719666,768.202881 
	C946.037415,768.202881 905.687744,768.202881 865.047485,768.202881 
	C865.047485,773.556152 865.047485,778.529541 865.047485,784.500732 
M783.463989,122.413200 
	C752.719543,122.413200 721.975098,122.413200 690.946411,122.413200 
	C690.946411,134.256058 690.946411,145.641144 690.946411,157.098114 
	C725.835693,157.098114 760.473755,157.098114 795.094849,157.098114 
	C795.094849,145.422546 795.094849,134.175476 795.094849,122.413460 
	C791.355652,122.413460 787.901917,122.413460 783.463989,122.413200 
z"/>
<path fill="#01BF64" opacity="1.000000" stroke="none" 
	d="
M1387.930786,670.000000 
	C1387.930786,464.189392 1387.930786,258.878784 1387.930786,53.194244 
	C1138.086792,53.194244 888.525330,53.194244 638.391541,53.194244 
	C638.391541,128.408371 638.391541,203.653610 638.391541,279.204102 
	C626.722107,279.204102 615.619934,279.204102 603.961731,279.204102 
	C603.883484,277.450806 603.737488,275.702209 603.737244,273.953613 
	C603.725830,195.287155 603.723389,116.620689 603.730835,37.954224 
	C603.732178,23.755392 609.513367,18.002041 623.781128,18.001797 
	C883.447083,17.997328 1143.113037,17.997490 1402.779053,18.001480 
	C1416.605835,18.001694 1422.532593,23.928802 1422.532837,37.764259 
	C1422.537109,314.930206 1422.527954,592.096130 1422.582520,869.262085 
	C1422.583862,876.184570 1420.171021,881.826843 1415.378296,886.619629 
	C1358.574585,943.424072 1301.751221,1000.208984 1245.001465,1057.067261 
	C1240.241821,1061.836060 1234.956543,1064.066895 1228.119507,1064.063477 
	C1026.619995,1063.963379 825.120544,1063.984497 623.621094,1063.977783 
	C609.863586,1063.977295 603.741943,1058.119385 603.738831,1044.831299 
	C603.717407,953.998230 603.727417,863.165100 603.727295,772.332031 
	C603.727295,771.031860 603.727295,769.731689 603.727295,768.126465 
	C615.333252,768.126465 626.555725,768.126465 638.285522,768.126465 
	C638.285522,855.086060 638.285522,941.827515 638.285522,1028.854980 
	C830.216919,1028.854980 1021.642456,1028.854980 1213.727173,1028.854980 
	C1213.727173,1026.867554 1213.727173,1024.925415 1213.727173,1022.983154 
	C1213.727173,973.649963 1213.723389,924.316711 1213.729492,874.983521 
	C1213.731323,860.371582 1219.282959,854.830872 1234.022095,854.825623 
	C1283.355347,854.807861 1332.688477,854.818909 1382.021729,854.818970 
	C1383.811768,854.818970 1385.601807,854.819031 1387.930786,854.819031 
	C1387.930786,793.051514 1387.930786,731.775757 1387.930786,670.000000 
M1248.290894,927.500000 
	C1248.290894,952.881226 1248.290894,978.262512 1248.290894,1003.372131 
	C1286.279297,965.382812 1324.017456,927.643799 1361.460693,890.199707 
	C1324.312622,890.199707 1286.481689,890.199707 1248.291016,890.199707 
	C1248.291016,902.555298 1248.291016,914.527649 1248.290894,927.500000 
z"/>
<path fill="#03C065" opacity="1.000000" stroke="none" 
	d="
M1318.056885,226.000000 
	C1318.056885,295.477386 1318.058960,364.454803 1318.054932,433.432190 
	C1318.054199,447.914459 1312.192627,453.824127 1297.845093,453.824341 
	C1177.717773,453.826019 1057.590454,453.826019 937.463135,453.824524 
	C923.293396,453.824341 917.291809,447.898987 917.290588,433.835114 
	C917.282288,336.700287 917.282776,239.565430 917.289856,142.430588 
	C917.290833,129.085861 922.816162,123.222260 936.073914,122.438972 
	C937.402405,122.360481 938.739014,122.417206 940.071899,122.417198 
	C1058.199829,122.416695 1176.327881,122.416756 1294.455811,122.416809 
	C1295.288818,122.416809 1296.122437,122.436203 1296.954834,122.414299 
	C1312.360474,122.008965 1318.429565,130.016647 1318.196899,143.529419 
	C1317.726685,170.845657 1318.056763,198.175674 1318.056885,226.000000 
M1283.284424,415.377625 
	C1283.284424,364.435028 1283.284424,313.492401 1283.284424,262.342468 
	C1213.372192,262.342468 1143.858276,262.342468 1074.441650,262.342468 
	C1074.441650,314.721985 1074.441650,366.757080 1074.441650,418.990143 
	C1075.818481,418.990143 1076.810303,418.990173 1077.802002,418.990173 
	C1144.774902,418.989990 1211.747803,418.989990 1278.720703,418.987213 
	C1279.719482,418.987183 1280.908813,419.279388 1281.663818,418.840698 
	C1282.426147,418.397797 1282.757812,417.213745 1283.284424,415.377625 
M1082.617676,157.425674 
	C1079.855347,157.425674 1077.093018,157.425674 1074.428711,157.425674 
	C1074.428711,181.110229 1074.428711,204.009491 1074.428711,226.786835 
	C1144.198730,226.786835 1213.591797,226.786835 1283.065430,226.786835 
	C1283.065430,203.654846 1283.065430,180.878662 1283.065430,157.425934 
	C1216.423462,157.425934 1150.005371,157.425934 1082.617676,157.425674 
M971.500427,261.998138 
	C965.082092,261.998138 958.663757,261.998138 952.288940,261.998138 
	C952.288940,314.667267 952.288940,366.574188 952.288940,418.617340 
	C981.373840,418.617340 1010.224243,418.617340 1039.056152,418.617340 
	C1039.056152,366.330078 1039.056152,314.416718 1039.056152,261.998138 
	C1016.719238,261.998138 994.609680,261.998138 971.500427,261.998138 
M986.500000,227.142731 
	C1003.936035,227.142731 1021.372070,227.142731 1038.980225,227.142731 
	C1038.980225,203.711441 1038.980225,180.836624 1038.980225,157.739044 
	C1009.940491,157.739044 981.213745,157.739044 952.344177,157.739044 
	C952.344177,180.941940 952.344177,203.828461 952.344177,227.142776 
	C963.587891,227.142776 974.543945,227.142776 986.500000,227.142731 
z"/>
<path fill="#02C064" opacity="1.000000" stroke="none" 
	d="
M799.999878,680.515015 
	C706.836060,680.515015 614.172180,680.517029 521.508362,680.504089 
	C519.346985,680.503784 517.176392,680.433228 515.025879,680.229126 
	C504.808319,679.259216 499.193909,673.165649 499.147247,662.761108 
	C499.069550,645.428650 499.125641,628.095642 499.125580,610.762817 
	C499.125488,582.596985 499.124664,554.431213 499.125946,526.265381 
	C499.126587,512.038086 504.958740,506.140167 519.023682,506.139832 
	C545.189575,506.139221 571.355408,506.139709 597.521301,506.139709 
	C599.343262,506.139709 601.165161,506.139709 603.724365,506.139709 
	C603.724365,504.088562 603.724365,502.331512 603.724365,500.574463 
	C603.724365,480.075073 603.716248,459.575714 603.727051,439.076324 
	C603.734558,424.767700 609.457275,418.994873 623.614868,418.992462 
	C649.780701,418.988037 675.946594,418.991241 702.112427,418.991241 
	C703.912842,418.991241 705.713196,418.991211 708.043640,418.991211 
	C708.043640,416.807556 708.043640,415.031036 708.043640,413.254517 
	C708.043640,381.422150 708.035767,349.589783 708.047058,317.757416 
	C708.052429,302.737274 713.848694,296.991882 728.938354,296.991455 
	C761.770691,296.990570 794.603027,296.989349 827.435364,296.992035 
	C841.735107,296.993195 847.711426,302.961243 847.723877,317.414459 
	C847.753967,352.246704 847.733643,387.078979 847.733643,421.911255 
	C847.733643,494.409027 847.733704,566.906799 847.733704,639.404602 
	C847.733704,641.201721 847.733704,642.998840 847.733704,645.343628 
	C865.240173,645.343628 882.309021,645.343628 899.648071,645.343628 
	C899.648071,657.155029 899.648071,668.418701 899.648071,680.515198 
	C866.637451,680.515198 833.568665,680.515198 799.999878,680.515015 
M755.510132,331.818817 
	C751.433411,331.818817 747.356750,331.818817 743.331726,331.818817 
	C743.331726,436.728882 743.331726,540.816101 743.331726,645.070068 
	C766.496765,645.070068 789.378906,645.070068 812.345215,645.070068 
	C812.345215,540.516785 812.345215,436.319305 812.345215,331.818756 
	C793.477417,331.818756 774.992676,331.818756 755.510132,331.818817 
M680.500000,453.819305 
	C666.578491,453.819305 652.656921,453.819305 638.663208,453.819305 
	C638.663208,517.978088 638.663208,581.485107 638.663208,645.066223 
	C661.903015,645.066223 684.776733,645.066223 707.723633,645.066223 
	C707.723633,581.194031 707.723633,517.680969 707.723633,453.819244 
	C698.769104,453.819244 690.134521,453.819244 680.500000,453.819305 
M549.502075,645.423340 
	C567.417236,645.423340 585.332336,645.423340 603.354004,645.423340 
	C603.354004,610.237427 603.354004,575.732727 603.354004,541.274719 
	C580.074890,541.274719 557.170959,541.274719 534.242188,541.274719 
	C534.242188,576.091003 534.242188,610.626770 534.242188,645.423584 
	C539.205811,645.423584 543.854187,645.423584 549.502075,645.423340 
z"/>
<path fill="#04C065" opacity="1.000000" stroke="none" 
	d="
M989.000000,715.152832 
	C970.699646,715.152893 952.899292,715.152893 934.910950,715.152893 
	C934.910950,703.482422 934.910950,692.222046 934.910950,680.687317 
	C1056.834351,680.687317 1178.506836,680.687317 1300.459229,680.687317 
	C1300.459229,692.184692 1300.459229,703.409729 1300.459229,715.152832 
	C1196.639404,715.152832 1093.069702,715.152832 989.000000,715.152832 
z"/>
<path fill="#02C064" opacity="1.000000" stroke="none" 
	d="
M1021.000000,506.139832 
	C1114.305176,506.139832 1207.110352,506.139832 1300.324463,506.139832 
	C1300.324463,517.747620 1300.324463,529.116211 1300.324463,540.733398 
	C1178.532959,540.733398 1056.825195,540.733398 934.949585,540.733398 
	C934.949585,529.210815 934.949585,517.952759 934.949585,506.139832 
	C963.614075,506.139832 992.057007,506.139832 1021.000000,506.139832 
z"/>
<path fill="#02C064" opacity="1.000000" stroke="none" 
	d="
M1248.000000,593.139771 
	C1265.647339,593.139832 1282.794800,593.139832 1300.337280,593.139832 
	C1300.337280,604.768066 1300.337280,616.145325 1300.337280,627.837402 
	C1178.622437,627.837402 1056.962646,627.837402 935.014282,627.837402 
	C935.014282,616.344421 935.014282,604.971313 935.014282,593.139771 
	C1039.368896,593.139771 1143.434448,593.139771 1248.000000,593.139771 
z"/>
<path fill="#03C065" opacity="1.000000" stroke="none" 
	d="
M705.004395,209.815247 
	C752.733826,209.815216 799.964478,209.815216 847.464355,209.815216 
	C847.464355,221.558731 847.464355,232.807190 847.464355,244.440994 
	C795.403381,244.440994 743.419556,244.440994 691.078979,244.440994 
	C691.078979,233.089722 691.078979,221.727341 691.078979,209.815262 
	C695.614319,209.815262 700.059937,209.815262 705.004395,209.815247 
z"/>
<path fill="#03C065" opacity="1.000000" stroke="none" 
	d="
M1115.000000,854.814392 
	C1130.625244,854.814392 1145.750610,854.814392 1161.081543,854.814392 
	C1161.081543,866.632324 1161.081543,878.035156 1161.081543,889.631348 
	C1120.535278,889.631348 1080.296631,889.631348 1039.671631,889.631348 
	C1039.671631,878.158264 1039.671631,866.785400 1039.671631,854.814392 
	C1064.678589,854.814392 1089.589233,854.814392 1115.000000,854.814392 
z"/>
<path fill="#03C065" opacity="1.000000" stroke="none" 
	d="
M1140.000000,941.989746 
	C1147.306396,941.989746 1154.112915,941.989746 1161.151367,941.989746 
	C1161.151367,953.636169 1161.151367,964.903687 1161.151367,976.498657 
	C1120.578491,976.498657 1080.221680,976.498657 1039.574951,976.498657 
	C1039.574951,965.059143 1039.574951,953.816833 1039.574951,941.989746 
	C1072.981812,941.989746 1106.240845,941.989746 1140.000000,941.989746 
z"/>
<path fill="#03C065" opacity="1.000000" stroke="none" 
	d="
M812.735657,878.963623 
	C812.735596,882.741455 812.735596,886.025635 812.735596,889.557495 
	C771.974426,889.557495 731.773499,889.557495 691.147217,889.557495 
	C691.147217,878.204773 691.147217,866.846558 691.147217,855.149048 
	C731.398804,855.149048 771.747681,855.149048 812.735718,855.149048 
	C812.735718,862.931946 812.735718,870.700989 812.735657,878.963623 
z"/>
<path fill="#03C065" opacity="1.000000" stroke="none" 
	d="
M964.000000,889.824341 
	C930.910217,889.824280 898.320435,889.824280 865.387268,889.824280 
	C865.387268,878.068054 865.387268,866.705750 865.387268,855.078003 
	C905.885193,855.078003 946.226379,855.078003 986.811890,855.078003 
	C986.811890,866.590088 986.811890,877.844849 986.811890,889.824341 
	C979.349182,889.824341 971.924561,889.824341 964.000000,889.824341 
z"/>
<path fill="#03C065" opacity="1.000000" stroke="none" 
	d="
M788.000000,976.824829 
	C755.405457,976.824829 723.310913,976.824829 690.970947,976.824829 
	C690.970947,965.042664 690.970947,953.793274 690.970947,942.266235 
	C731.467163,942.266235 771.841553,942.266235 812.476196,942.266235 
	C812.476196,953.694885 812.476196,964.934387 812.476196,976.824890 
	C804.363831,976.824890 796.431946,976.824890 788.000000,976.824829 
z"/>
<path fill="#03C065" opacity="1.000000" stroke="none" 
	d="
M921.000000,941.990356 
	C943.130676,941.990356 964.761353,941.990356 986.723511,941.990356 
	C986.723511,953.527649 986.723511,964.768616 986.723511,976.418762 
	C946.450073,976.418762 906.095886,976.418762 865.391357,976.418762 
	C865.391357,965.206238 865.391357,953.968567 865.391357,941.990356 
	C883.681274,941.990356 902.090637,941.990356 921.000000,941.990356 
z"/>
<path fill="#01BF64" opacity="1.000000" stroke="none" 
	d="
M753.000000,767.819519 
	C772.975037,767.819519 792.450134,767.819519 812.326965,767.819519 
	C812.326965,779.312012 812.326965,790.527832 812.326965,802.129395 
	C772.038269,802.129395 731.662903,802.129395 691.007141,802.129395 
	C691.007141,790.815308 691.007141,779.586060 691.007141,767.819519 
	C711.629700,767.819519 732.064880,767.819519 753.000000,767.819519 
z"/>
<path fill="#01BF64" opacity="1.000000" stroke="none" 
	d="
M1064.000000,767.818970 
	C1096.589478,767.818909 1128.678955,767.818909 1161.023682,767.818909 
	C1161.023682,779.555664 1161.023682,790.776672 1161.023682,802.255005 
	C1120.516968,802.255005 1080.287598,802.255005 1039.675049,802.255005 
	C1039.675049,790.885437 1039.675049,779.681702 1039.675049,767.818970 
	C1047.643799,767.818970 1055.571899,767.818970 1064.000000,767.818970 
z"/>
<path fill="#01BF63" opacity="1.000000" stroke="none" 
	d="
M865.047485,784.001831 
	C865.047485,778.529541 865.047485,773.556152 865.047485,768.202881 
	C905.687744,768.202881 946.037415,768.202881 986.719666,768.202881 
	C986.719666,779.359924 986.719666,790.573547 986.719666,802.107544 
	C946.251770,802.107544 905.911072,802.107544 865.047485,802.107544 
	C865.047485,796.072021 865.047485,790.286377 865.047485,784.001831 
z"/>
<path fill="#04C065" opacity="1.000000" stroke="none" 
	d="
M783.956116,122.413330 
	C787.901917,122.413460 791.355652,122.413460 795.094849,122.413460 
	C795.094849,134.175476 795.094849,145.422546 795.094849,157.098114 
	C760.473755,157.098114 725.835693,157.098114 690.946411,157.098114 
	C690.946411,145.641144 690.946411,134.256058 690.946411,122.413200 
	C721.975098,122.413200 752.719543,122.413200 783.956116,122.413330 
z"/>
<path fill="#FCFEFD" opacity="1.000000" stroke="none" 
	d="
M1248.291016,927.000000 
	C1248.291016,914.527649 1248.291016,902.555298 1248.291016,890.199707 
	C1286.481689,890.199707 1324.312622,890.199707 1361.460693,890.199707 
	C1324.017456,927.643799 1286.279297,965.382812 1248.290894,1003.372131 
	C1248.290894,978.262512 1248.290894,952.881226 1248.291016,927.000000 
z"/>
<path fill="#FFFFFF" opacity="1.000000" stroke="none" 
	d="
M1283.281372,415.866028 
	C1282.757812,417.213745 1282.426147,418.397797 1281.663818,418.840698 
	C1280.908813,419.279388 1279.719482,418.987183 1278.720703,418.987213 
	C1211.747803,418.989990 1144.774902,418.989990 1077.802002,418.990173 
	C1076.810303,418.990173 1075.818481,418.990143 1074.441650,418.990143 
	C1074.441650,366.757080 1074.441650,314.721985 1074.441650,262.342468 
	C1143.858276,262.342468 1213.372192,262.342468 1283.284424,262.342468 
	C1283.284424,313.492401 1283.284424,364.435028 1283.281372,415.866028 
z"/>
<path fill="#FDFEFE" opacity="1.000000" stroke="none" 
	d="
M1083.102417,157.425812 
	C1150.005371,157.425934 1216.423462,157.425934 1283.065430,157.425934 
	C1283.065430,180.878662 1283.065430,203.654846 1283.065430,226.786835 
	C1213.591797,226.786835 1144.198730,226.786835 1074.428711,226.786835 
	C1074.428711,204.009491 1074.428711,181.110229 1074.428711,157.425674 
	C1077.093018,157.425674 1079.855347,157.425674 1083.102417,157.425812 
z"/>
<path fill="#FEFFFF" opacity="1.000000" stroke="none" 
	d="
M972.000305,261.998138 
	C994.609680,261.998138 1016.719238,261.998138 1039.056152,261.998138 
	C1039.056152,314.416718 1039.056152,366.330078 1039.056152,418.617340 
	C1010.224243,418.617340 981.373840,418.617340 952.288940,418.617340 
	C952.288940,366.574188 952.288940,314.667267 952.288940,261.998138 
	C958.663757,261.998138 965.082092,261.998138 972.000305,261.998138 
z"/>
<path fill="#FDFEFE" opacity="1.000000" stroke="none" 
	d="
M986.000000,227.142761 
	C974.543945,227.142776 963.587891,227.142776 952.344177,227.142776 
	C952.344177,203.828461 952.344177,180.941940 952.344177,157.739044 
	C981.213745,157.739044 1009.940491,157.739044 1038.980225,157.739044 
	C1038.980225,180.836624 1038.980225,203.711441 1038.980225,227.142731 
	C1021.372070,227.142731 1003.936035,227.142731 986.000000,227.142761 
z"/>
<path fill="#FDFFFE" opacity="1.000000" stroke="none" 
	d="
M756.009033,331.818787 
	C774.992676,331.818756 793.477417,331.818756 812.345215,331.818756 
	C812.345215,436.319305 812.345215,540.516785 812.345215,645.070068 
	C789.378906,645.070068 766.496765,645.070068 743.331726,645.070068 
	C743.331726,540.816101 743.331726,436.728882 743.331726,331.818817 
	C747.356750,331.818817 751.433411,331.818817 756.009033,331.818787 
z"/>
<path fill="#FDFFFE" opacity="1.000000" stroke="none" 
	d="
M681.000000,453.819275 
	C690.134521,453.819244 698.769104,453.819244 707.723633,453.819244 
	C707.723633,517.680969 707.723633,581.194031 707.723633,645.066223 
	C684.776733,645.066223 661.903015,645.066223 638.663208,645.066223 
	C638.663208,581.485107 638.663208,517.978088 638.663208,453.819305 
	C652.656921,453.819305 666.578491,453.819305 681.000000,453.819275 
z"/>
<path fill="#FEFFFE" opacity="1.000000" stroke="none" 
	d="
M549.002319,645.423462 
	C543.854187,645.423584 539.205811,645.423584 534.242188,645.423584 
	C534.242188,610.626770 534.242188,576.091003 534.242188,541.274719 
	C557.170959,541.274719 580.074890,541.274719 603.354004,541.274719 
	C603.354004,575.732727 603.354004,610.237427 603.354004,645.423340 
	C585.332336,645.423340 567.417236,645.423340 549.002319,645.423462 
z"/>
</svg>