<svg version="1.1" id="Layer_1" xmlns="http://www.w3.org/2000/svg" xmlns:xlink="http://www.w3.org/1999/xlink" x="0px" y="0px"
	 width="100%" viewBox="0 0 96 85" enable-background="new 0 0 96 85" xml:space="preserve">
<path fill="#FDFFFE" opacity="1.000000" stroke="none" 
	d="
M62.000000,1.000000 
	C73.650887,1.000000 85.301773,1.000000 96.976334,1.000000 
	C96.976334,29.279217 96.976334,57.558456 96.976334,85.918854 
	C65.097549,85.918854 33.194847,85.918854 1.146069,85.918854 
	C1.146069,57.667198 1.146069,29.333708 1.146069,1.000000 
	C8.415659,1.000000 15.739093,1.000000 23.719004,1.436769 
	C24.389837,8.866309 24.497616,15.861237 24.336348,22.849955 
	C24.305674,24.179220 23.393162,26.474586 22.574268,26.625603 
	C19.318243,27.226063 19.246864,29.360682 19.218960,31.802961 
	C19.182940,34.955498 20.349365,39.531055 18.739994,40.972137 
	C15.031583,44.292755 16.621977,47.537369 16.991392,50.928864 
	C17.549475,56.052490 18.498110,61.137672 18.939135,66.268555 
	C19.247633,69.857628 20.816771,71.136360 24.370457,71.051208 
	C32.025089,70.867798 39.688339,71.071381 47.345570,70.953987 
	C50.014793,70.913071 51.653866,71.373306 53.155895,74.128906 
	C58.960239,84.777428 72.040962,87.745407 81.907318,81.049698 
	C91.527924,74.520760 93.375153,61.658474 86.390022,51.982742 
	C85.156166,50.273617 85.160263,47.622635 84.754982,45.377304 
	C84.366096,43.222786 84.905655,39.735092 83.776131,39.109245 
	C80.948570,37.542549 81.189049,35.416317 81.407501,33.209133 
	C81.803360,29.209631 80.756012,26.446632 75.951675,26.233072 
	C76.846535,19.709557 76.173180,14.170866 70.598175,9.973322 
	C67.331757,7.513962 64.840149,4.025520 62.000000,1.000000 
z"/>
<path fill="#09C168" opacity="1.000000" stroke="none" 
	d="
M61.531342,1.000000 
	C64.840149,4.025520 67.331757,7.513962 70.598175,9.973322 
	C76.173180,14.170866 76.846535,19.709557 75.951675,26.233072 
	C80.756012,26.446632 81.803360,29.209631 81.407501,33.209133 
	C81.189049,35.416317 80.948570,37.542549 83.776131,39.109245 
	C84.905655,39.735092 84.366096,43.222786 84.754982,45.377304 
	C85.160263,47.622635 85.156166,50.273617 86.390022,51.982742 
	C93.375153,61.658474 91.527924,74.520760 81.907318,81.049698 
	C72.040962,87.745407 58.960239,84.777428 53.155895,74.128906 
	C51.653866,71.373306 50.014793,70.913071 47.345570,70.953987 
	C39.688339,71.071381 32.025089,70.867798 24.370457,71.051208 
	C20.816771,71.136360 19.247633,69.857628 18.939135,66.268555 
	C18.498110,61.137672 17.549475,56.052490 16.991392,50.928864 
	C16.621977,47.537369 15.031583,44.292755 18.739994,40.972137 
	C20.349365,39.531055 19.182940,34.955498 19.218960,31.802961 
	C19.246864,29.360682 19.318243,27.226063 22.574268,26.625603 
	C23.393162,26.474586 24.305674,24.179220 24.336348,22.849955 
	C24.497616,15.861237 24.389837,8.866309 24.187740,1.436769 
	C36.354229,1.000000 48.708454,1.000000 61.531342,1.000000 
M34.565891,2.993953 
	C32.137920,2.993953 29.709953,2.993953 27.311054,2.993953 
	C27.311054,16.294750 27.311054,28.991072 27.311054,41.965622 
	C35.250069,41.965622 42.871532,42.027821 50.489731,41.898209 
	C51.625546,41.878883 52.738888,40.941036 53.875210,40.457703 
	C55.695305,39.683533 57.490444,38.403381 59.359070,38.278458 
	C64.068512,37.963631 68.813072,38.174213 73.494301,38.174213 
	C73.494301,30.962189 73.494301,24.563200 73.494301,17.832048 
	C71.194679,17.832048 69.218460,17.853674 67.242828,17.828321 
	C58.504486,17.716181 59.476482,19.092882 59.399231,9.748405 
	C59.381821,7.642735 59.396671,5.536801 59.396671,2.993952 
	C51.101604,2.993952 43.324688,2.993952 34.565891,2.993953 
M87.714386,60.299355 
	C87.159966,58.914780 86.725227,57.466816 86.031067,56.156254 
	C82.429749,49.357063 74.596771,45.673386 67.088516,47.171909 
	C59.670586,48.652401 53.696678,55.282658 53.038017,62.766121 
	C52.341480,70.679863 56.955990,78.154373 64.302223,80.913651 
	C77.251465,85.777466 90.436356,74.668213 87.714386,60.299355 
M21.806623,36.450474 
	C21.912310,38.295074 22.017996,40.139671 22.157663,42.577370 
	C25.689548,39.105965 25.479155,31.192759 21.806532,28.810314 
	C21.806532,31.349119 21.806532,33.434765 21.806623,36.450474 
M78.990280,35.372299 
	C78.819702,33.268051 78.649124,31.163807 78.478546,29.059561 
	C77.717964,29.059620 76.957375,29.059679 76.196793,29.059738 
	C76.196793,31.771872 76.196793,34.484005 76.196793,37.196136 
	C77.124001,36.889454 78.051201,36.582771 78.990280,35.372299 
z"/>
<path fill="#F9FDFB" opacity="1.000000" stroke="none" 
	d="
M35.056831,2.993953 
	C43.324688,2.993952 51.101604,2.993952 59.396671,2.993952 
	C59.396671,5.536801 59.381821,7.642735 59.399231,9.748405 
	C59.476482,19.092882 58.504486,17.716181 67.242828,17.828321 
	C69.218460,17.853674 71.194679,17.832048 73.494301,17.832048 
	C73.494301,24.563200 73.494301,30.962189 73.494301,38.174213 
	C68.813072,38.174213 64.068512,37.963631 59.359070,38.278458 
	C57.490444,38.403381 55.695305,39.683533 53.875210,40.457703 
	C52.738888,40.941036 51.625546,41.878883 50.489731,41.898209 
	C42.871532,42.027821 35.250069,41.965622 27.311054,41.965622 
	C27.311054,28.991072 27.311054,16.294750 27.311054,2.993953 
	C29.709953,2.993953 32.137920,2.993953 35.056831,2.993953 
M35.016083,23.904236 
	C46.282352,23.904236 57.548622,23.904236 68.814896,23.904236 
	C68.484665,22.097193 68.162621,21.429506 67.832993,21.425735 
	C56.736523,21.298891 45.639290,21.225683 34.542679,21.270763 
	C34.402992,21.271330 34.269924,22.901737 35.016083,23.904236 
M62.273632,29.150230 
	C61.758266,28.441364 61.249950,27.120811 60.726490,27.114780 
	C51.952572,27.013697 43.176609,27.060356 34.401798,27.145935 
	C33.900078,27.150827 33.404366,27.771765 32.905857,28.105991 
	C32.936188,28.621288 32.966518,29.136585 32.996849,29.651880 
	C42.510921,29.990860 52.043205,29.936337 62.273632,29.150230 
M55.143391,16.618673 
	C47.859520,16.424250 40.575684,16.228071 33.290974,16.073162 
	C33.243008,16.072144 33.182899,16.642344 33.033581,17.474710 
	C40.365841,17.474710 47.602100,17.474710 55.143391,16.618673 
M51.836182,12.797676 
	C54.084267,9.859614 51.505215,10.158858 49.927433,10.130008 
	C45.135143,10.042377 40.338821,10.046318 35.547375,10.157260 
	C34.650772,10.178020 33.769459,10.858892 32.881088,11.235135 
	C32.939655,11.800515 32.998222,12.365895 33.056789,12.931275 
	C39.022846,12.931275 44.988903,12.931275 51.836182,12.797676 
z"/>
<path fill="#F6FDF9" opacity="1.000000" stroke="none" 
	d="
M87.803909,60.710205 
	C90.436356,74.668213 77.251465,85.777466 64.302223,80.913651 
	C56.955990,78.154373 52.341480,70.679863 53.038017,62.766121 
	C53.696678,55.282658 59.670586,48.652401 67.088516,47.171909 
	C74.596771,45.673386 82.429749,49.357063 86.031067,56.156254 
	C86.725227,57.466816 87.159966,58.914780 87.803909,60.710205 
M72.330009,52.262970 
	C70.681259,52.468597 68.617935,52.135487 67.483002,53.008831 
	C65.867401,54.252060 64.092476,56.312187 63.941639,58.150978 
	C63.786507,60.042244 64.997368,63.182991 66.486771,63.865929 
	C71.683601,66.248863 69.391556,69.854073 68.169754,73.697845 
	C67.057121,72.076935 65.944496,70.456024 64.539268,68.408852 
	C62.119049,75.241440 67.854256,75.537209 70.742882,77.751930 
	C72.181961,76.980637 73.625023,76.323128 74.946777,75.476280 
	C78.408615,73.258286 79.060219,67.104156 75.481178,65.331146 
	C70.310417,62.769619 72.557068,58.985588 73.324471,55.036873 
	C74.279961,56.652832 75.235443,58.268791 76.190933,59.884750 
	C76.658592,59.662426 77.126259,59.440098 77.593918,59.217770 
	C77.890419,56.178429 77.062454,53.655472 72.330009,52.262970 
z"/>
<path fill="#D3F4E4" opacity="1.000000" stroke="none" 
	d="
M21.806578,35.985443 
	C21.806532,33.434765 21.806532,31.349119 21.806532,28.810314 
	C25.479155,31.192759 25.689548,39.105965 22.157663,42.577370 
	C22.017996,40.139671 21.912310,38.295074 21.806578,35.985443 
z"/>
<path fill="#E0F7EC" opacity="1.000000" stroke="none" 
	d="
M78.984344,35.824192 
	C78.051201,36.582771 77.124001,36.889454 76.196793,37.196136 
	C76.196793,34.484005 76.196793,31.771872 76.196793,29.059738 
	C76.957375,29.059679 77.717964,29.059620 78.478546,29.059561 
	C78.649124,31.163807 78.819702,33.268051 78.984344,35.824192 
z"/>
<path fill="#2ECA7F" opacity="1.000000" stroke="none" 
	d="
M34.574924,23.837812 
	C34.269924,22.901737 34.402992,21.271330 34.542679,21.270763 
	C45.639290,21.225683 56.736523,21.298891 67.832993,21.425735 
	C68.162621,21.429506 68.484665,22.097193 68.814896,23.904236 
	C57.548622,23.904236 46.282352,23.904236 34.574924,23.837812 
z"/>
<path fill="#2DCA7F" opacity="1.000000" stroke="none" 
	d="
M61.929802,29.402790 
	C52.043205,29.936337 42.510921,29.990860 32.996849,29.651880 
	C32.966518,29.136585 32.936188,28.621288 32.905857,28.105991 
	C33.404366,27.771765 33.900078,27.150827 34.401798,27.145935 
	C43.176609,27.060356 51.952572,27.013697 60.726490,27.114780 
	C61.249950,27.120811 61.758266,28.441364 61.929802,29.402790 
z"/>
<path fill="#2ECA7F" opacity="1.000000" stroke="none" 
	d="
M54.990875,17.046692 
	C47.602100,17.474710 40.365841,17.474710 33.033581,17.474710 
	C33.182899,16.642344 33.243008,16.072144 33.290974,16.073162 
	C40.575684,16.228071 47.859520,16.424250 54.990875,17.046692 
z"/>
<path fill="#2ECA7F" opacity="1.000000" stroke="none" 
	d="
M51.395569,12.864475 
	C44.988903,12.931275 39.022846,12.931275 33.056789,12.931275 
	C32.998222,12.365895 32.939655,11.800515 32.881088,11.235135 
	C33.769459,10.858892 34.650772,10.178020 35.547375,10.157260 
	C40.338821,10.046318 45.135143,10.042377 49.927433,10.130008 
	C51.505215,10.158858 54.084267,9.859614 51.395569,12.864475 
z"/>
<path fill="#10C36D" opacity="1.000000" stroke="none" 
	d="
M72.641884,52.451050 
	C77.062454,53.655472 77.890419,56.178429 77.593918,59.217770 
	C77.126259,59.440098 76.658592,59.662426 76.190933,59.884750 
	C75.235443,58.268791 74.279961,56.652832 73.324471,55.036873 
	C72.557068,58.985588 70.310417,62.769619 75.481178,65.331146 
	C79.060219,67.104156 78.408615,73.258286 74.946777,75.476280 
	C73.625023,76.323128 72.181961,76.980637 70.742882,77.751930 
	C67.854256,75.537209 62.119049,75.241440 64.539268,68.408852 
	C65.944496,70.456024 67.057121,72.076935 68.169754,73.697845 
	C69.391556,69.854073 71.683601,66.248863 66.486771,63.865929 
	C64.997368,63.182991 63.786507,60.042244 63.941639,58.150978 
	C64.092476,56.312187 65.867401,54.252060 67.483002,53.008831 
	C68.617935,52.135487 70.681259,52.468597 72.641884,52.451050 
M69.697113,61.514034 
	C69.697113,59.372398 69.697113,57.230766 69.697113,55.089130 
	C69.001923,54.983456 68.306732,54.877785 67.611549,54.772110 
	C67.081581,56.366173 66.022713,58.025692 66.209007,59.531116 
	C66.331657,60.522232 68.248405,61.291332 69.697113,61.514034 
z"/>
<path fill="#D5F4E5" opacity="1.000000" stroke="none" 
	d="
M69.529449,61.836941 
	C68.248405,61.291332 66.331657,60.522232 66.209007,59.531116 
	C66.022713,58.025692 67.081581,56.366173 67.611549,54.772110 
	C68.306732,54.877785 69.001923,54.983456 69.697113,55.089130 
	C69.697113,57.230766 69.697113,59.372398 69.529449,61.836941 
z"/>
</svg>